# xmcd CD database file
#
# Track frame offsets:
#	150
#	11527
#	23865
#	37565
#	50927
#	64415
#	77117
#	91567
#	106600
#	122230
#	136297
#	149977
#	163770
#
# Disc length: 2366 seconds
#
# Revision: 0
# Processed by: cddbd v1.5.2PL0 Copyright (c) Steve Scherf et al.
# Submitted via: CDex 1.51
#
DISCID=ac093c0d
DTITLE=Sarah Vaughan - All Time Greatest Hits vol 3
DYEAR=1995
DGENRE=Jazz
TTITLE0=Broken Hearted Melody
TTITLE1=Everything I Have Is Yours
TTITLE2=Love Me Or Leave Me
TTITLE3=Don't Worry 'Bout Me
TTITLE4=If You Could See Me Now
TTITLE5=I Feel So Smoochie
TTITLE6=Tenderly
TTITLE7=It's Magic
TTITLE8=Lover Man (Oh Where Can You Be)
TTITLE9=Time After Time
TTITLE10=A Hundred Years From Today
TTITLE11=I Cover The Waterfront
TTITLE12=Body And Soul
EXTD=YEAR: 1995
EXTT0=
EXTT1=
EXTT2=
EXTT3=
EXTT4=
EXTT5=
EXTT6=
EXTT7=
EXTT8=
EXTT9=
EXTT10=
EXTT11=
EXTT12=
PLAYORDER=
